<svg width="30" height="30" viewBox="0 0 30 30" fill="none" xmlns="http://www.w3.org/2000/svg">
<path d="M22.5 10C22.5 8.01088 21.7098 6.10322 20.3033 4.6967C18.8968 3.29018 16.9891 2.5 15 2.5C13.0109 2.5 11.1032 3.29018 9.6967 4.6967C8.29018 6.10322 7.5 8.01088 7.5 10C7.5 18.75 3.75 21.25 3.75 21.25H26.25C26.25 21.25 22.5 18.75 22.5 10Z" stroke="#72818F" stroke-width="2.5" stroke-linecap="round" stroke-linejoin="round"/>
<path d="M17.1619 26.25C16.9421 26.6288 16.6267 26.9433 16.2472 27.1619C15.8677 27.3805 15.4374 27.4956 14.9994 27.4956C14.5614 27.4956 14.1312 27.3805 13.7516 27.1619C13.3721 26.9433 13.0567 26.6288 12.8369 26.25" stroke="#72818F" stroke-width="2.5" stroke-linecap="round" stroke-linejoin="round"/>
</svg>
