<svg xmlns="http://www.w3.org/2000/svg" viewBox="0 0 46.21 64"><defs><!--<style>.cls-1{fill:#396073;}</style>--></defs><title>Asset 73</title><g id="Layer_2" data-name="Layer 2"><g id="Layer_1-2" data-name="Layer 1"><path class="cls-1" d="M34.38,64a14.91,14.91,0,0,1-7.11-2.52A51.46,51.46,0,0,1,17,52.39,67.35,67.35,0,0,1,.92,21.06a29.4,29.4,0,0,1-.79-9.8A10.15,10.15,0,0,1,2.18,5.72,9.13,9.13,0,0,1,4.34,3.87C6.2,2.71,8.14,1.67,10,.55A3.85,3.85,0,0,1,15.42,2c1.86,3.44,3.83,6.82,5.86,10.16a3.78,3.78,0,0,1-1.4,5.4c-1.7,1-3.38,2-5.08,2.93a.72.72,0,0,0-.45.83,33.65,33.65,0,0,0,4.33,12.53,38.59,38.59,0,0,0,7.62,10c.66.61,1.4,1.13,2.09,1.71a.61.61,0,0,0,.8,0c1.72-1,3.44-2,5.18-3a3.8,3.8,0,0,1,4.42.3,3.13,3.13,0,0,1,.68.82Q42.55,49,45.58,54.32a3.63,3.63,0,0,1-1.35,5.3q-3,1.82-6.12,3.54A7.19,7.19,0,0,1,34.38,64Z"/></g></g></svg>