<svg width="26" height="26" viewBox="0 0 26 26" fill="none" xmlns="http://www.w3.org/2000/svg">
<path d="M0.8125 4.58336H13.1831C13.5559 6.28042 15.0714 7.55447 16.8788 7.55447C18.6862 7.55447 20.2017 6.28047 20.5746 4.58336H25.1875C25.6362 4.58336 26 4.21957 26 3.77086C26 3.32216 25.6362 2.95836 25.1875 2.95836H20.5742C20.2006 1.26217 18.683 -0.0126953 16.8788 -0.0126953C15.0737 -0.0126953 13.5568 1.26196 13.1834 2.95836H0.8125C0.363797 2.95836 0 3.32216 0 3.77086C0 4.21957 0.363797 4.58336 0.8125 4.58336ZM14.7203 3.773C14.7203 3.7701 14.7204 3.76716 14.7204 3.76426C14.7239 2.57766 15.6922 1.61236 16.8788 1.61236C18.0638 1.61236 19.0321 2.57634 19.0372 3.76238L19.0374 3.77432C19.0355 4.96295 18.0679 5.92952 16.8788 5.92952C15.6902 5.92952 14.723 4.96392 14.7203 3.77599L14.7203 3.773ZM25.1875 21.4164H20.5742C20.2006 19.7202 18.683 18.4453 16.8788 18.4453C15.0737 18.4453 13.5568 19.72 13.1834 21.4164H0.8125C0.363797 21.4164 0 21.7801 0 22.2289C0 22.6776 0.363797 23.0414 0.8125 23.0414H13.1831C13.5559 24.7384 15.0714 26.0125 16.8788 26.0125C18.6862 26.0125 20.2017 24.7384 20.5746 23.0414H25.1875C25.6362 23.0414 26 22.6776 26 22.2289C26 21.7801 25.6362 21.4164 25.1875 21.4164ZM16.8788 24.3875C15.6902 24.3875 14.723 23.4219 14.7203 22.234L14.7203 22.231C14.7203 22.2281 14.7204 22.2252 14.7204 22.2223C14.7239 21.0357 15.6922 20.0703 16.8788 20.0703C18.0638 20.0703 19.0321 21.0343 19.0372 22.2203L19.0374 22.2322C19.0357 23.421 18.068 24.3875 16.8788 24.3875ZM25.1875 12.1874H12.8169C12.4441 10.4903 10.9286 9.21634 9.12118 9.21634C7.31377 9.21634 5.79825 10.4903 5.42542 12.1874H0.8125C0.363797 12.1874 0 12.5512 0 12.9999C0 13.4487 0.363797 13.8124 0.8125 13.8124H5.42582C5.79942 15.5085 7.31697 16.7835 9.12118 16.7835C10.9263 16.7835 12.4432 15.5087 12.8166 13.8124H25.1875C25.6362 13.8124 26 13.4487 26 12.9999C26 12.5512 25.6362 12.1874 25.1875 12.1874ZM11.2797 12.9978C11.2797 13.0007 11.2796 13.0036 11.2796 13.0065C11.2761 14.1931 10.3078 15.1584 9.12118 15.1584C7.9362 15.1584 6.9679 14.1944 6.96277 13.0084L6.96262 12.9965C6.96439 11.8078 7.93203 10.8413 9.12118 10.8413C10.3098 10.8413 11.277 11.8069 11.2797 12.9949L11.2797 12.9978Z" fill="white"/>
</svg>
