<svg width="188" height="154" viewBox="0 0 188 154" fill="none" xmlns="http://www.w3.org/2000/svg">
<path d="M2.1541 146.627V130.277H5.1291L10.2291 139.477L11.9041 142.952H12.0041C11.9374 142.102 11.8541 141.193 11.7541 140.227C11.6708 139.243 11.6291 138.293 11.6291 137.377V130.277H14.4041V146.627H11.4291L6.3291 137.427L4.6541 133.952H4.5541C4.62077 134.818 4.69577 135.727 4.7791 136.677C4.8791 137.627 4.9291 138.56 4.9291 139.477V146.627H2.1541ZM23.3354 146.927C22.5687 146.927 21.8354 146.785 21.1354 146.502C20.4354 146.218 19.8104 145.802 19.2604 145.252C18.727 144.702 18.302 144.027 17.9854 143.227C17.6687 142.427 17.5104 141.518 17.5104 140.502C17.5104 139.485 17.6687 138.577 17.9854 137.777C18.302 136.977 18.727 136.302 19.2604 135.752C19.8104 135.202 20.4354 134.785 21.1354 134.502C21.8354 134.202 22.5687 134.052 23.3354 134.052C24.102 134.052 24.8354 134.202 25.5354 134.502C26.252 134.785 26.877 135.202 27.4104 135.752C27.9437 136.302 28.3687 136.977 28.6854 137.777C29.0187 138.577 29.1854 139.485 29.1854 140.502C29.1854 141.518 29.0187 142.427 28.6854 143.227C28.3687 144.027 27.9437 144.702 27.4104 145.252C26.877 145.802 26.252 146.218 25.5354 146.502C24.8354 146.785 24.102 146.927 23.3354 146.927ZM23.3354 144.577C24.2354 144.577 24.9437 144.21 25.4604 143.477C25.977 142.727 26.2354 141.735 26.2354 140.502C26.2354 139.252 25.977 138.26 25.4604 137.527C24.9437 136.777 24.2354 136.402 23.3354 136.402C22.4354 136.402 21.727 136.777 21.2104 137.527C20.7104 138.26 20.4604 139.252 20.4604 140.502C20.4604 141.735 20.7104 142.727 21.2104 143.477C21.727 144.21 22.4354 144.577 23.3354 144.577ZM37.2859 146.627V130.277H41.6609C44.1609 130.277 46.1109 130.952 47.5109 132.302C48.9109 133.652 49.6109 135.677 49.6109 138.377C49.6109 139.727 49.4276 140.918 49.0609 141.952C48.7109 142.985 48.1943 143.852 47.5109 144.552C46.8443 145.235 46.0276 145.752 45.0609 146.102C44.1109 146.452 43.0276 146.627 41.8109 146.627H37.2859ZM40.1859 144.277H41.4609C43.1276 144.277 44.4026 143.802 45.2859 142.852C46.1859 141.885 46.6359 140.393 46.6359 138.377C46.6359 136.377 46.1859 134.918 45.2859 134.002C44.3859 133.085 43.1109 132.627 41.4609 132.627H40.1859V144.277ZM55.6359 146.927C54.5526 146.927 53.6776 146.602 53.0109 145.952C52.3443 145.285 52.0109 144.41 52.0109 143.327C52.0109 142.677 52.1443 142.102 52.4109 141.602C52.6943 141.085 53.1276 140.643 53.7109 140.277C54.3109 139.91 55.0609 139.602 55.9609 139.352C56.8776 139.102 57.9693 138.91 59.2359 138.777C59.2193 138.46 59.1693 138.16 59.0859 137.877C59.0193 137.577 58.8943 137.318 58.7109 137.102C58.5443 136.868 58.3193 136.693 58.0359 136.577C57.7526 136.443 57.4026 136.377 56.9859 136.377C56.3859 136.377 55.7943 136.493 55.2109 136.727C54.6443 136.96 54.0859 137.243 53.5359 137.577L52.4859 135.652C53.1693 135.218 53.9359 134.843 54.7859 134.527C55.6359 134.21 56.5526 134.052 57.5359 134.052C59.0693 134.052 60.2109 134.51 60.9609 135.427C61.7276 136.327 62.1109 137.635 62.1109 139.352V146.627H59.7359L59.5359 145.277H59.4359C58.8859 145.743 58.2943 146.135 57.6609 146.452C57.0443 146.768 56.3693 146.927 55.6359 146.927ZM56.5609 144.677C57.0609 144.677 57.5109 144.56 57.9109 144.327C58.3276 144.093 58.7693 143.76 59.2359 143.327V140.577C58.4026 140.677 57.7026 140.81 57.1359 140.977C56.5693 141.143 56.1109 141.335 55.7609 141.552C55.4109 141.752 55.1609 141.985 55.0109 142.252C54.8609 142.518 54.7859 142.802 54.7859 143.102C54.7859 143.652 54.9526 144.052 55.2859 144.302C55.6193 144.552 56.0443 144.677 56.5609 144.677ZM69.4859 146.927C68.7693 146.927 68.1609 146.818 67.6609 146.602C67.1776 146.385 66.7776 146.085 66.4609 145.702C66.1609 145.302 65.9359 144.835 65.7859 144.302C65.6526 143.752 65.5859 143.143 65.5859 142.477V136.627H63.8359V134.477L65.7359 134.352L66.0859 131.002H68.4859V134.352H71.6109V136.627H68.4859V142.477C68.4859 143.91 69.0609 144.627 70.2109 144.627C70.4276 144.627 70.6443 144.602 70.8609 144.552C71.0943 144.502 71.3026 144.435 71.4859 144.352L71.9859 146.477C71.6526 146.593 71.2693 146.693 70.8359 146.777C70.4193 146.877 69.9693 146.927 69.4859 146.927ZM76.632 146.927C75.5487 146.927 74.6737 146.602 74.007 145.952C73.3404 145.285 73.007 144.41 73.007 143.327C73.007 142.677 73.1404 142.102 73.407 141.602C73.6904 141.085 74.1237 140.643 74.707 140.277C75.307 139.91 76.057 139.602 76.957 139.352C77.8737 139.102 78.9654 138.91 80.232 138.777C80.2154 138.46 80.1654 138.16 80.082 137.877C80.0154 137.577 79.8904 137.318 79.707 137.102C79.5404 136.868 79.3154 136.693 79.032 136.577C78.7487 136.443 78.3987 136.377 77.982 136.377C77.382 136.377 76.7904 136.493 76.207 136.727C75.6404 136.96 75.082 137.243 74.532 137.577L73.482 135.652C74.1654 135.218 74.932 134.843 75.782 134.527C76.632 134.21 77.5487 134.052 78.532 134.052C80.0654 134.052 81.207 134.51 81.957 135.427C82.7237 136.327 83.107 137.635 83.107 139.352V146.627H80.732L80.532 145.277H80.432C79.882 145.743 79.2904 146.135 78.657 146.452C78.0404 146.768 77.3654 146.927 76.632 146.927ZM77.557 144.677C78.057 144.677 78.507 144.56 78.907 144.327C79.3237 144.093 79.7654 143.76 80.232 143.327V140.577C79.3987 140.677 78.6987 140.81 78.132 140.977C77.5654 141.143 77.107 141.335 76.757 141.552C76.407 141.752 76.157 141.985 76.007 142.252C75.857 142.518 75.782 142.802 75.782 143.102C75.782 143.652 75.9487 144.052 76.282 144.302C76.6154 144.552 77.0404 144.677 77.557 144.677ZM95.1525 137.927L94.5775 139.927H98.7525L98.1775 137.927C97.9109 137.06 97.6525 136.168 97.4025 135.252C97.1692 134.335 96.9359 133.427 96.7025 132.527H96.6025C96.3692 133.443 96.1359 134.36 95.9025 135.277C95.6692 136.177 95.4192 137.06 95.1525 137.927ZM89.6775 146.627L95.0025 130.277H98.4025L103.728 146.627H100.678L99.4025 142.202H93.9025L92.6275 146.627H89.6775ZM107.95 146.627L103.675 134.352H106.6L108.55 140.727C108.717 141.327 108.883 141.935 109.05 142.552C109.233 143.168 109.408 143.793 109.575 144.427H109.675C109.858 143.793 110.033 143.168 110.2 142.552C110.367 141.935 110.542 141.327 110.725 140.727L112.675 134.352H115.45L111.275 146.627H107.95ZM120.065 146.927C118.981 146.927 118.106 146.602 117.44 145.952C116.773 145.285 116.44 144.41 116.44 143.327C116.44 142.677 116.573 142.102 116.84 141.602C117.123 141.085 117.556 140.643 118.14 140.277C118.74 139.91 119.49 139.602 120.39 139.352C121.306 139.102 122.398 138.91 123.665 138.777C123.648 138.46 123.598 138.16 123.515 137.877C123.448 137.577 123.323 137.318 123.14 137.102C122.973 136.868 122.748 136.693 122.465 136.577C122.181 136.443 121.831 136.377 121.415 136.377C120.815 136.377 120.223 136.493 119.64 136.727C119.073 136.96 118.515 137.243 117.965 137.577L116.915 135.652C117.598 135.218 118.365 134.843 119.215 134.527C120.065 134.21 120.981 134.052 121.965 134.052C123.498 134.052 124.64 134.51 125.39 135.427C126.156 136.327 126.54 137.635 126.54 139.352V146.627H124.165L123.965 145.277H123.865C123.315 145.743 122.723 146.135 122.09 146.452C121.473 146.768 120.798 146.927 120.065 146.927ZM120.99 144.677C121.49 144.677 121.94 144.56 122.34 144.327C122.756 144.093 123.198 143.76 123.665 143.327V140.577C122.831 140.677 122.131 140.81 121.565 140.977C120.998 141.143 120.54 141.335 120.19 141.552C119.84 141.752 119.59 141.985 119.44 142.252C119.29 142.518 119.215 142.802 119.215 143.102C119.215 143.652 119.381 144.052 119.715 144.302C120.048 144.552 120.473 144.677 120.99 144.677ZM129.98 146.627V134.352H132.855V146.627H129.98ZM131.43 132.202C130.914 132.202 130.489 132.052 130.155 131.752C129.822 131.452 129.655 131.06 129.655 130.577C129.655 130.093 129.822 129.702 130.155 129.402C130.489 129.085 130.914 128.927 131.43 128.927C131.947 128.927 132.372 129.085 132.705 129.402C133.039 129.702 133.205 130.093 133.205 130.577C133.205 131.06 133.039 131.452 132.705 131.752C132.372 132.052 131.947 132.202 131.43 132.202ZM139.323 146.927C138.29 146.927 137.565 146.618 137.148 146.002C136.732 145.385 136.523 144.543 136.523 143.477V128.977H139.398V143.627C139.398 143.977 139.465 144.227 139.598 144.377C139.732 144.51 139.873 144.577 140.023 144.577C140.09 144.577 140.148 144.577 140.198 144.577C140.265 144.577 140.357 144.56 140.473 144.527L140.848 146.677C140.465 146.843 139.957 146.927 139.323 146.927ZM146.285 146.927C145.202 146.927 144.327 146.602 143.66 145.952C142.994 145.285 142.66 144.41 142.66 143.327C142.66 142.677 142.794 142.102 143.06 141.602C143.344 141.085 143.777 140.643 144.36 140.277C144.96 139.91 145.71 139.602 146.61 139.352C147.527 139.102 148.619 138.91 149.885 138.777C149.869 138.46 149.819 138.16 149.735 137.877C149.669 137.577 149.544 137.318 149.36 137.102C149.194 136.868 148.969 136.693 148.685 136.577C148.402 136.443 148.052 136.377 147.635 136.377C147.035 136.377 146.444 136.493 145.86 136.727C145.294 136.96 144.735 137.243 144.185 137.577L143.135 135.652C143.819 135.218 144.585 134.843 145.435 134.527C146.285 134.21 147.202 134.052 148.185 134.052C149.719 134.052 150.86 134.51 151.61 135.427C152.377 136.327 152.76 137.635 152.76 139.352V146.627H150.385L150.185 145.277H150.085C149.535 145.743 148.944 146.135 148.31 146.452C147.694 146.768 147.019 146.927 146.285 146.927ZM147.21 144.677C147.71 144.677 148.16 144.56 148.56 144.327C148.977 144.093 149.419 143.76 149.885 143.327V140.577C149.052 140.677 148.352 140.81 147.785 140.977C147.219 141.143 146.76 141.335 146.41 141.552C146.06 141.752 145.81 141.985 145.66 142.252C145.51 142.518 145.435 142.802 145.435 143.102C145.435 143.652 145.602 144.052 145.935 144.302C146.269 144.552 146.694 144.677 147.21 144.677ZM162.151 146.927C161.584 146.927 161.009 146.793 160.426 146.527C159.859 146.243 159.318 145.843 158.801 145.327H158.726L158.476 146.627H156.201V128.977H159.076V133.527L159.001 135.577C159.518 135.127 160.076 134.76 160.676 134.477C161.293 134.193 161.918 134.052 162.551 134.052C163.318 134.052 164.001 134.202 164.601 134.502C165.201 134.785 165.709 135.202 166.126 135.752C166.543 136.285 166.859 136.935 167.076 137.702C167.293 138.468 167.401 139.327 167.401 140.277C167.401 141.327 167.251 142.268 166.951 143.102C166.668 143.918 166.284 144.61 165.801 145.177C165.318 145.743 164.759 146.177 164.126 146.477C163.493 146.777 162.834 146.927 162.151 146.927ZM161.551 144.552C162.368 144.552 163.051 144.202 163.601 143.502C164.151 142.785 164.426 141.727 164.426 140.327C164.426 139.093 164.218 138.135 163.801 137.452C163.384 136.768 162.709 136.427 161.776 136.427C160.909 136.427 160.009 136.885 159.076 137.802V143.527C159.509 143.91 159.934 144.177 160.351 144.327C160.784 144.477 161.184 144.552 161.551 144.552ZM173.088 146.927C172.055 146.927 171.33 146.618 170.913 146.002C170.496 145.385 170.288 144.543 170.288 143.477V128.977H173.163V143.627C173.163 143.977 173.23 144.227 173.363 144.377C173.496 144.51 173.638 144.577 173.788 144.577C173.855 144.577 173.913 144.577 173.963 144.577C174.03 144.577 174.121 144.56 174.238 144.527L174.613 146.677C174.23 146.843 173.721 146.927 173.088 146.927ZM182.325 146.927C181.475 146.927 180.683 146.785 179.95 146.502C179.217 146.202 178.575 145.777 178.025 145.227C177.475 144.677 177.042 144.01 176.725 143.227C176.425 142.427 176.275 141.518 176.275 140.502C176.275 139.502 176.433 138.602 176.75 137.802C177.067 137.002 177.483 136.327 178 135.777C178.533 135.227 179.142 134.802 179.825 134.502C180.508 134.202 181.208 134.052 181.925 134.052C182.758 134.052 183.492 134.193 184.125 134.477C184.758 134.76 185.283 135.16 185.7 135.677C186.133 136.193 186.458 136.81 186.675 137.527C186.892 138.243 187 139.027 187 139.877C187 140.16 186.983 140.427 186.95 140.677C186.933 140.927 186.908 141.127 186.875 141.277H179.075C179.208 142.377 179.592 143.227 180.225 143.827C180.875 144.41 181.7 144.702 182.7 144.702C183.233 144.702 183.725 144.627 184.175 144.477C184.642 144.31 185.1 144.085 185.55 143.802L186.525 145.602C185.942 145.985 185.292 146.302 184.575 146.552C183.858 146.802 183.108 146.927 182.325 146.927ZM179.05 139.327H184.5C184.5 138.377 184.292 137.635 183.875 137.102C183.475 136.552 182.85 136.277 182 136.277C181.267 136.277 180.625 136.535 180.075 137.052C179.525 137.568 179.183 138.327 179.05 139.327Z" fill="#2550B0"/>
<path opacity="0.2" d="M94.2587 102.192C122.478 102.192 145.355 79.3157 145.355 51.0961C145.355 22.8765 122.478 0 94.2587 0C66.0391 0 43.1626 22.8765 43.1626 51.0961C43.1626 79.3157 66.0391 102.192 94.2587 102.192Z" fill="#2665D3"/>
<path d="M61.3242 42.3904L43.1626 72.977L70.9334 75.9139H117.584L145.355 72.977L127.193 42.3904H61.3242Z" fill="#2665D3"/>
<path d="M117.584 76.5433H70.9336C70.9094 76.5433 70.8933 76.5433 70.8691 76.5433L43.0983 73.5984C42.8885 73.5742 42.7029 73.4451 42.6061 73.2596C42.5093 73.0659 42.5173 72.84 42.6303 72.6625L60.7919 42.0759C60.9048 41.8822 61.1065 41.7693 61.3324 41.7693H127.201C127.419 41.7693 127.629 41.8822 127.742 42.0759L145.904 72.6625C146.008 72.8481 146.017 73.074 145.928 73.2596C145.831 73.4532 145.645 73.5823 145.436 73.5984L117.665 76.5433C117.624 76.5433 117.6 76.5433 117.584 76.5433ZM70.9659 75.2928H117.544L144.314 72.4608L126.83 43.0118H61.6794L44.1955 72.4608L70.9659 75.2928Z" fill="#2550B0"/>
<path d="M122.522 65.9173H65.9956C63.3815 65.9173 61.2676 63.8034 61.2676 61.1893V31.4821C61.2676 28.868 63.3815 26.7542 65.9956 26.7542H122.522C125.136 26.7542 127.25 28.868 127.25 31.4821V61.1893C127.25 63.8034 125.136 65.9173 122.522 65.9173Z" fill="white"/>
<path d="M122.545 66.5385H119.826C119.48 66.5385 119.205 66.2561 119.205 65.9172C119.205 65.5703 119.488 65.296 119.826 65.296H122.545C122.892 65.296 123.167 65.5784 123.167 65.9172C123.167 66.2642 122.884 66.5385 122.545 66.5385ZM115.784 66.5385H113.089C112.743 66.5385 112.468 66.2561 112.468 65.9172C112.468 65.5703 112.751 65.296 113.089 65.296H115.784C116.131 65.296 116.406 65.5784 116.406 65.9172C116.406 66.2642 116.131 66.5385 115.784 66.5385ZM109.047 66.5385H106.352C106.006 66.5385 105.731 66.2561 105.731 65.9172C105.731 65.5703 106.014 65.296 106.352 65.296H109.047C109.394 65.296 109.669 65.5784 109.669 65.9172C109.669 66.2642 109.386 66.5385 109.047 66.5385ZM102.302 66.5385H99.6075C99.2605 66.5385 98.9862 66.2561 98.9862 65.9172C98.9862 65.5703 99.2686 65.296 99.6075 65.296H102.302C102.649 65.296 102.924 65.5784 102.924 65.9172C102.932 66.2642 102.649 66.5385 102.302 66.5385ZM95.5653 66.5385H92.8705C92.5236 66.5385 92.2492 66.2561 92.2492 65.9172C92.2492 65.5703 92.5316 65.296 92.8705 65.296H95.5653C95.9122 65.296 96.1865 65.5784 96.1865 65.9172C96.1946 66.2642 95.9122 66.5385 95.5653 66.5385ZM88.8283 66.5385H86.1335C85.7866 66.5385 85.5123 66.2561 85.5123 65.9172C85.5123 65.5703 85.7947 65.296 86.1335 65.296H88.8283C89.1752 65.296 89.4496 65.5784 89.4496 65.9172C89.4496 66.2642 89.1752 66.5385 88.8283 66.5385ZM82.0913 66.5385H79.3966C79.0496 66.5385 78.7753 66.2561 78.7753 65.9172C78.7753 65.5703 79.0577 65.296 79.3966 65.296H82.0913C82.4383 65.296 82.7126 65.5784 82.7126 65.9172C82.7126 66.2642 82.4383 66.5385 82.0913 66.5385ZM75.3463 66.5385H72.6515C72.3046 66.5385 72.0303 66.2561 72.0303 65.9172C72.0303 65.5703 72.3127 65.296 72.6515 65.296H75.3463C75.6932 65.296 75.9676 65.5784 75.9676 65.9172C75.9756 66.2642 75.6932 66.5385 75.3463 66.5385ZM68.6093 66.5385H65.9952C65.963 66.5385 65.9387 66.5385 65.9065 66.5385C65.5595 66.5304 65.2852 66.248 65.2933 65.9011C65.3014 65.5542 65.5838 65.2799 65.9307 65.2879C65.9549 65.2879 65.9791 65.2879 65.9952 65.2879H68.6093C68.9563 65.2879 69.2306 65.5703 69.2306 65.9092C69.2387 66.2642 68.9563 66.5385 68.6093 66.5385ZM126.104 64.9006C125.958 64.9006 125.813 64.8522 125.692 64.7473C125.434 64.5214 125.402 64.1261 125.627 63.8679C126.144 63.2709 126.475 62.5447 126.58 61.7702C126.628 61.4313 126.943 61.1893 127.29 61.2377C127.628 61.2861 127.87 61.6007 127.822 61.9477C127.677 62.9643 127.249 63.9082 126.58 64.6909C126.45 64.828 126.281 64.9006 126.104 64.9006ZM62.3726 64.8603C62.1951 64.8603 62.0176 64.7877 61.8966 64.6344C61.235 63.8518 60.8154 62.8917 60.6863 61.8751C60.646 61.5362 60.888 61.2215 61.2269 61.1731C61.5658 61.1328 61.8804 61.3748 61.9288 61.7137C62.0257 62.4882 62.3484 63.2224 62.8567 63.8276C63.0826 64.0938 63.0423 64.4892 62.7841 64.707C62.6631 64.8119 62.5178 64.8603 62.3726 64.8603ZM127.249 58.438C126.902 58.438 126.628 58.1556 126.628 57.8167V55.1219C126.628 54.775 126.91 54.5007 127.249 54.5007C127.596 54.5007 127.87 54.7831 127.87 55.1219V57.8167C127.879 58.1637 127.596 58.438 127.249 58.438ZM61.2672 58.3815C60.9203 58.3815 60.646 58.0991 60.646 57.7603V55.0655C60.646 54.7185 60.9284 54.4442 61.2672 54.4442C61.6142 54.4442 61.8885 54.7266 61.8885 55.0655V57.7603C61.8885 58.0991 61.6142 58.3815 61.2672 58.3815ZM127.249 51.701C126.902 51.701 126.628 51.4186 126.628 51.0798V48.385C126.628 48.038 126.91 47.7637 127.249 47.7637C127.596 47.7637 127.87 48.0461 127.87 48.385V51.0798C127.879 51.4186 127.596 51.701 127.249 51.701ZM61.2672 51.6445C60.9203 51.6445 60.646 51.3622 60.646 51.0233V48.3204C60.646 47.9735 60.9284 47.6992 61.2672 47.6992C61.6142 47.6992 61.8885 47.9816 61.8885 48.3204V51.0152C61.8885 51.3622 61.6142 51.6445 61.2672 51.6445ZM127.249 44.9641C126.902 44.9641 126.628 44.6817 126.628 44.3428V41.648C126.628 41.3011 126.91 41.0268 127.249 41.0268C127.596 41.0268 127.87 41.3091 127.87 41.648V44.3428C127.879 44.6817 127.596 44.9641 127.249 44.9641ZM61.2672 44.9076C60.9203 44.9076 60.646 44.6252 60.646 44.2863V41.5915C60.646 41.2446 60.9284 40.9703 61.2672 40.9703C61.6142 40.9703 61.8885 41.2527 61.8885 41.5915V44.2863C61.8885 44.6252 61.6142 44.9076 61.2672 44.9076ZM127.249 38.2271C126.902 38.2271 126.628 37.9447 126.628 37.6058V34.911C126.628 34.5641 126.91 34.2898 127.249 34.2898C127.596 34.2898 127.87 34.5722 127.87 34.911V37.6058C127.879 37.9447 127.596 38.2271 127.249 38.2271ZM61.2672 38.1625C60.9203 38.1625 60.646 37.8802 60.646 37.5413V34.8465C60.646 34.4996 60.9284 34.2252 61.2672 34.2252C61.6142 34.2252 61.8885 34.5076 61.8885 34.8465V37.5413C61.8885 37.8882 61.6142 38.1625 61.2672 38.1625ZM127.209 31.4901C126.902 31.4901 126.628 31.2642 126.588 30.9495C126.483 30.175 126.16 29.4408 125.652 28.8437C125.426 28.5775 125.458 28.1821 125.724 27.9643C125.991 27.7384 126.386 27.7707 126.604 28.0369C127.265 28.8195 127.685 29.7716 127.822 30.7882C127.87 31.127 127.628 31.4417 127.281 31.4901C127.265 31.482 127.233 31.4901 127.209 31.4901ZM61.3157 31.4256C61.2834 31.4256 61.2592 31.4256 61.2269 31.4175C60.888 31.3691 60.646 31.0544 60.6944 30.7075C60.8396 29.6909 61.2753 28.7469 61.945 27.9724C62.1709 27.7142 62.5662 27.6819 62.8244 27.9078C63.0826 28.1337 63.1149 28.5291 62.889 28.7873C62.3726 29.3843 62.0418 30.1105 61.9288 30.885C61.8885 31.2077 61.6223 31.4256 61.3157 31.4256ZM122.594 27.3834H122.586C122.57 27.3834 122.545 27.3834 122.529 27.3834H119.899C119.552 27.3834 119.278 27.101 119.278 26.7621C119.278 26.4152 119.56 26.1409 119.899 26.1409H122.529C122.553 26.1409 122.578 26.1409 122.61 26.1409C122.957 26.1489 123.231 26.4313 123.223 26.7783C123.207 27.1091 122.933 27.3834 122.594 27.3834ZM65.9872 27.3753C65.6402 27.3753 65.3659 27.0929 65.3659 26.7541C65.3659 26.4152 65.6483 26.1328 65.9872 26.1328V26.7541V26.1328H68.6819C69.0289 26.1328 69.3032 26.4152 69.3032 26.7541C69.3032 27.101 69.0208 27.3753 68.6819 27.3753H65.9872ZM115.849 27.3753H113.154C112.807 27.3753 112.533 27.0929 112.533 26.7541C112.533 26.4071 112.815 26.1328 113.154 26.1328H115.849C116.196 26.1328 116.47 26.4152 116.47 26.7541C116.478 27.101 116.196 27.3753 115.849 27.3753ZM109.112 27.3753H106.417C106.07 27.3753 105.796 27.0929 105.796 26.7541C105.796 26.4071 106.078 26.1328 106.417 26.1328H109.112C109.459 26.1328 109.733 26.4152 109.733 26.7541C109.741 27.101 109.459 27.3753 109.112 27.3753ZM102.375 27.3753H99.6801C99.3331 27.3753 99.0588 27.0929 99.0588 26.7541C99.0588 26.4071 99.3412 26.1328 99.6801 26.1328H102.375C102.722 26.1328 102.996 26.4152 102.996 26.7541C102.996 27.101 102.722 27.3753 102.375 27.3753ZM95.6379 27.3753H92.9431C92.5962 27.3753 92.3218 27.0929 92.3218 26.7541C92.3218 26.4071 92.6042 26.1328 92.9431 26.1328H95.6379C95.9848 26.1328 96.2591 26.4152 96.2591 26.7541C96.2591 27.101 95.9768 27.3753 95.6379 27.3753ZM88.8929 27.3753H86.1981C85.8511 27.3753 85.5768 27.0929 85.5768 26.7541C85.5768 26.4071 85.8592 26.1328 86.1981 26.1328H88.8929C89.2398 26.1328 89.5141 26.4152 89.5141 26.7541C89.5222 27.101 89.2398 27.3753 88.8929 27.3753ZM82.1559 27.3753H79.4611C79.1142 27.3753 78.8398 27.0929 78.8398 26.7541C78.8398 26.4071 79.1222 26.1328 79.4611 26.1328H82.1559C82.5028 26.1328 82.7771 26.4152 82.7771 26.7541C82.7852 27.101 82.5028 27.3753 82.1559 27.3753ZM75.4189 27.3753H72.7241C72.3772 27.3753 72.1029 27.0929 72.1029 26.7541C72.1029 26.4071 72.3853 26.1328 72.7241 26.1328H75.4189C75.7659 26.1328 76.0402 26.4152 76.0402 26.7541C76.0402 27.101 75.7659 27.3753 75.4189 27.3753Z" fill="#2550B0"/>
<path d="M129.17 75.9139H59.3475C57.4273 75.9139 55.8701 74.3567 55.8701 72.4365V61.1732C55.8701 59.253 57.4273 57.6958 59.3475 57.6958H129.178C131.098 57.6958 132.655 59.253 132.655 61.1732V72.4365C132.655 74.3567 131.098 75.9139 129.17 75.9139Z" fill="white"/>
<path d="M129.17 76.5431H59.3474C57.0883 76.5431 55.2407 74.7036 55.2407 72.4364V61.1731C55.2407 58.914 57.0803 57.0664 59.3474 57.0664H129.178C131.437 57.0664 133.285 58.906 133.285 61.1731V72.4364C133.277 74.7036 131.437 76.5431 129.17 76.5431ZM59.3474 58.325C57.7741 58.325 56.4913 59.6079 56.4913 61.1812V72.4444C56.4913 74.0177 57.7741 75.3006 59.3474 75.3006H129.178C130.751 75.3006 132.034 74.0177 132.034 72.4444V61.1812C132.034 59.6079 130.751 58.325 129.178 58.325H59.3474Z" fill="#2550B0"/>
<path d="M133.438 83.5628H55.0793C52.9251 83.5628 51.1743 81.812 51.1743 79.6578V67.0229C51.1743 64.8687 52.9251 63.1179 55.0793 63.1179H133.438C135.592 63.1179 137.343 64.8687 137.343 67.0229V79.6578C137.343 81.812 135.592 83.5628 133.438 83.5628Z" fill="white"/>
<path d="M133.438 84.184H55.0795C52.5864 84.184 50.5532 82.1508 50.5532 79.6577V67.0229C50.5532 64.5298 52.5864 62.4966 55.0795 62.4966H133.438C135.931 62.4966 137.964 64.5298 137.964 67.0229V79.6577C137.964 82.1508 135.931 84.184 133.438 84.184ZM55.0795 63.7391C53.2722 63.7391 51.8038 65.2075 51.8038 67.0148V79.6496C51.8038 81.4569 53.2722 82.9253 55.0795 82.9253H133.438C135.245 82.9253 136.714 81.4569 136.714 79.6496V67.0148C136.714 65.2075 135.245 63.7391 133.438 63.7391H55.0795Z" fill="#2550B0"/>
<path d="M145.355 72.977V103.999C145.355 106.339 143.459 108.243 141.111 108.243H47.4065C45.0667 108.243 43.1626 106.347 43.1626 103.999V72.977C43.1626 70.6373 45.0586 68.7332 47.4065 68.7332H67.3511C69.3359 68.7332 70.9415 70.3387 70.9415 72.3235C70.9415 74.3083 72.5471 75.9139 74.5319 75.9139H113.994C115.978 75.9139 117.584 74.3083 117.584 72.3235C117.584 70.3387 119.189 68.7332 121.174 68.7332H141.119C143.451 68.7332 145.355 70.6373 145.355 72.977Z" fill="#73A7FF"/>
<path d="M141.111 108.865H47.4062C44.7194 108.865 42.541 106.678 42.541 104V72.9772C42.541 70.2905 44.7275 68.1121 47.4062 68.1121H67.3508C69.6745 68.1121 71.5705 70 71.5705 72.3317C71.5705 73.9696 72.9017 75.3008 74.5396 75.3008H114.001C115.639 75.3008 116.97 73.9696 116.97 72.3317C116.97 70.0081 118.858 68.1121 121.19 68.1121H141.135C143.821 68.1121 146 70.2985 146 72.9772V104C145.976 106.686 143.797 108.865 141.111 108.865ZM47.4062 69.3626C45.4133 69.3626 43.7916 70.9843 43.7916 72.9772V104C43.7916 105.992 45.4133 107.614 47.4062 107.614H141.111C143.103 107.614 144.725 105.992 144.725 104V72.9772C144.725 70.9843 143.103 69.3626 141.111 69.3626H121.166C119.528 69.3626 118.197 70.6939 118.197 72.3317C118.197 74.6554 116.309 76.5514 113.977 76.5514H74.5235C72.1998 76.5514 70.3038 74.6635 70.3038 72.3317C70.3038 70.6939 68.9725 69.3626 67.3347 69.3626H47.4062Z" fill="#2550B0"/>
<path d="M99.5841 48.8209C99.3018 48.8209 99.0194 48.716 98.8015 48.4981L88.1515 37.8481C87.7158 37.4124 87.7158 36.7104 88.1515 36.2748C88.5872 35.8391 89.2891 35.8391 89.7248 36.2748L100.367 46.9167C100.802 47.3524 100.802 48.0544 100.367 48.4901C100.149 48.7079 99.8665 48.8209 99.5841 48.8209Z" fill="#2550B0"/>
<path d="M88.9341 48.8208C88.6517 48.8208 88.3693 48.716 88.1515 48.4981C87.7158 48.0624 87.7158 47.3605 88.1515 46.9248L98.7935 36.2828C99.2291 35.8471 99.9311 35.8471 100.367 36.2828C100.802 36.7185 100.802 37.4204 100.367 37.8561L89.7248 48.4981C89.5069 48.7079 89.2245 48.8208 88.9341 48.8208Z" fill="#2550B0"/>
</svg>
