<svg width="94" height="94" viewBox="0 0 94 94" fill="none" xmlns="http://www.w3.org/2000/svg">
<rect x="1" y="1" width="91.9298" height="91.9298" rx="11.4912" stroke="#2E59B1" stroke-width="1.5"/>
<ellipse cx="53.5" cy="38" rx="15.5" ry="15" fill="#E5EDFF"/>
<path d="M31 70H24L24.5 54H32V57.0001C37.5 53.5001 43.5 56.5001 45 57.5001C46.5 58.5001 50.5 58.0001 54 58.0001C56.8 58.0001 58.5 60.3334 59 61.5001C60.8333 60.1667 65.2 57.3 68 56.5C70.8 55.7 71.5 58.1667 71.5 59.5L54.5 70L49.5 71L36 67L31 68.5V70Z" fill="#E5EDFF"/>
<path d="M37.8096 43.5764L37.8078 43.6083C37.6846 45.766 38.8932 47.7873 40.8878 48.7564L40.9082 48.7664C41.6114 49.1028 42.1877 49.6573 42.5514 50.3469L42.5596 50.3619C43.5646 52.2755 45.6432 53.4355 47.8591 53.3191L47.8927 53.3173C48.6963 53.2723 49.4941 53.4796 50.1741 53.9105C52.0504 55.0841 54.4322 55.0841 56.3086 53.9105C56.9886 53.4796 57.7863 53.2723 58.5899 53.3173L58.6236 53.3191C60.8358 53.4364 62.9172 52.2755 63.9244 50.3587L63.9294 50.3482C64.2944 49.6569 64.8722 49.1014 65.5776 48.7646L65.594 48.7564C67.5885 47.7869 68.7976 45.766 68.6739 43.6078L68.6721 43.5778C68.6312 42.8178 68.8421 42.0655 69.273 41.4378C70.5135 39.6287 70.5135 37.2433 69.2735 35.4338C68.843 34.8065 68.6312 34.0547 68.6721 33.2947L68.6739 33.2629C68.7976 31.1047 67.5885 29.0838 65.5921 28.1138L65.574 28.1047C64.8722 27.7693 64.2972 27.2175 63.9331 26.5297L63.9226 26.5093C62.9172 24.5957 60.8358 23.4361 58.6236 23.552L58.5895 23.5538C57.7863 23.5988 56.9886 23.3916 56.309 22.9607H56.3081C54.4318 21.787 52.05 21.787 50.1736 22.9607C49.4936 23.3911 48.6959 23.5984 47.8923 23.5534L47.8586 23.5516C45.6459 23.4343 43.565 24.5952 42.56 26.5084L42.5523 26.5225C42.1882 27.2134 41.6114 27.7684 40.9073 28.1052L40.8882 28.1143C38.8937 29.0834 37.6846 31.1047 37.8082 33.2629L37.81 33.2929C37.851 34.0529 37.64 34.8051 37.2091 35.4324C35.9687 37.2419 35.9687 39.6278 37.2091 41.4369C37.6396 42.0642 37.851 42.8164 37.8096 43.5764V43.5764ZM38.7414 36.4897C39.4064 35.5215 39.7323 34.3606 39.6687 33.1879L39.6669 33.1561C39.6014 31.7261 40.4041 30.3979 41.7 29.7902L41.7159 29.7824C42.7791 29.2734 43.6496 28.4352 44.1986 27.3925L44.2077 27.3752C44.8755 26.1034 46.2741 25.3325 47.7595 25.4116L47.7923 25.4129C48.9809 25.4797 50.1604 25.1734 51.1659 24.5361C52.4354 23.742 54.0463 23.742 55.3158 24.5361C56.3213 25.1725 57.5008 25.4793 58.689 25.4134L58.7217 25.4116C60.2145 25.3334 61.6063 26.1034 62.2722 27.3715L62.2844 27.3947C62.8335 28.4361 63.7031 29.2729 64.7649 29.7815L64.7803 29.7893C66.0967 30.4293 66.8958 31.7506 66.8153 33.1565L66.8135 33.1897C66.7499 34.3624 67.0762 35.5229 67.7412 36.491C68.5449 37.6633 68.5444 39.2087 67.7403 40.3806C67.0758 41.3492 66.7499 42.5101 66.8135 43.6828L66.8153 43.7142C66.8958 45.1201 66.0967 46.4419 64.7799 47.0823L64.7662 47.0887C63.7022 47.5987 62.8308 48.4378 62.2813 49.4823L62.2744 49.496C61.6063 50.7678 60.2099 51.5391 58.7222 51.4596L58.6899 51.4578C57.5013 51.3914 56.3213 51.6982 55.3154 52.335C54.0463 53.1287 52.4354 53.1287 51.1663 52.335C50.2518 51.7555 49.1909 51.4482 48.1082 51.4491C48.0032 51.4491 47.8977 51.4518 47.7923 51.4578L47.7595 51.4591C46.2936 51.5523 44.9068 50.785 44.2064 49.4937L44.1968 49.476C43.6486 48.4351 42.7796 47.5987 41.7182 47.0901L41.7009 47.0814C40.3841 46.4414 39.585 45.1196 39.6659 43.7142L39.6678 43.681C39.7309 42.5083 39.4046 41.3474 38.74 40.3796C37.9369 39.2074 37.9373 37.6619 38.7414 36.4906V36.4897Z" fill="#2E59B1"/>
<path d="M47.2346 48.0592C47.6705 48.3315 48.2446 48.1983 48.5169 47.7624L59.5445 30.0961C59.7245 29.8138 59.7395 29.4566 59.5832 29.1607C59.4268 28.8643 59.1232 28.6752 58.7886 28.6648C58.4541 28.6543 58.1395 28.8243 57.965 29.1102L46.9378 46.7765C46.6655 47.2128 46.7982 47.7869 47.2346 48.0592V48.0592Z" fill="#2E59B1"/>
<path d="M48.2232 38.4814C50.49 38.4814 52.3345 36.3783 52.3345 33.7933C52.3345 31.2083 50.49 29.1056 48.2232 29.1056C45.9564 29.1056 44.1123 31.2083 44.1123 33.7933C44.1123 36.3783 45.9564 38.4814 48.2232 38.4814ZM48.2232 30.9674C49.4636 30.9674 50.4727 32.2351 50.4727 33.7933C50.4727 35.3515 49.4636 36.6196 48.2232 36.6196C46.9832 36.6196 45.9741 35.351 45.9741 33.7933C45.9741 32.2356 46.9832 30.9674 48.2232 30.9674Z" fill="#2E59B1"/>
<path d="M54.1484 43.0787C54.1484 45.6637 55.9925 47.7664 58.2593 47.7664C60.5261 47.7664 62.3707 45.6632 62.3707 43.0787C62.3707 40.4946 60.5266 38.391 58.2598 38.391C55.9925 38.391 54.1484 40.4933 54.1484 43.0787V43.0787ZM60.5089 43.0787C60.5089 44.6369 59.4998 45.9046 58.2593 45.9046C57.0193 45.9046 56.0102 44.6369 56.0102 43.0787C56.0102 41.5205 57.0193 40.2528 58.2593 40.2528C59.4998 40.2528 60.5089 41.5196 60.5089 43.0787Z" fill="#2E59B1"/>
<path d="M72.8791 58.5367C71.6464 56.349 68.9128 55.5159 66.6696 56.644L59.3774 60.0895C58.3706 58.2172 56.4392 57.0254 54.3138 56.9654L47.582 56.7799C46.5161 56.7495 45.4702 56.479 44.5225 55.9899L43.8375 55.6349C40.3302 53.8068 36.1498 53.8113 32.6462 55.6468L32.6889 54.095C32.703 53.5809 32.298 53.1527 31.7839 53.1386L24.4022 52.9354C23.8881 52.9213 23.4604 53.3263 23.4463 53.8404L23.0004 70.0399C22.9863 70.5539 23.3913 70.9821 23.9054 70.9962L31.2871 71.1994H31.313C31.8171 71.1989 32.2294 70.7976 32.2435 70.2939L32.2644 69.5189L34.1821 68.4921C34.9348 68.0871 35.8153 67.9908 36.6375 68.2235L48.0888 71.4376C48.1088 71.4435 48.1288 71.448 48.1493 71.4526C48.977 71.6258 49.8206 71.7126 50.6665 71.7121C52.4574 71.713 54.2274 71.3271 55.8551 70.5798C55.8951 70.5617 55.9338 70.5408 55.9706 70.5171L72.5741 59.7767C72.9882 59.5095 73.1219 58.9654 72.8791 58.5367V58.5367ZM24.8872 69.1603L25.2817 54.8227L30.8026 54.9745L30.4076 69.3126L24.8872 69.1603ZM55.0161 68.9162C52.9938 69.8289 50.7352 70.0808 48.5616 69.6362L37.1407 66.4312C35.8557 66.0676 34.4794 66.2185 33.3035 66.8508L32.3235 67.3753L32.5862 57.8422C35.6912 55.7768 39.6739 55.5645 42.9811 57.2877L43.6661 57.6427C44.8634 58.2608 46.1843 58.6022 47.5311 58.6408L54.2629 58.8263C56.1538 58.8804 57.7597 60.2267 58.1433 62.0794L48.1161 61.8035C47.602 61.7895 47.1743 62.1944 47.1602 62.7085C47.1461 63.2226 47.5511 63.6508 48.0652 63.6649L59.131 63.9694H59.1574C59.661 63.969 60.0733 63.5676 60.0874 63.064C60.0988 62.6594 60.0683 62.2544 59.9974 61.8563L67.4755 58.3222L67.4973 58.3117C68.5582 57.7745 69.8414 57.954 70.7137 58.7617L55.0161 68.9162Z" fill="#2E59B1"/>
</svg>
