<svg xmlns="http://www.w3.org/2000/svg" viewBox="0 0 65.86 64"><defs><!--<style>.cls-1{fill:#396073;}</style>--></defs><title>Asset 74</title><g id="Layer_2" data-name="Layer 2"><g id="Layer_1-2" data-name="Layer 1"><path class="cls-1" d="M43.4,41.74h-21a40.43,40.43,0,0,1,0-19.25h1.72c6.14,0,12.28,0,18.42,0,.63,0,.87.13,1,.77a40.77,40.77,0,0,1,0,17.86C43.51,41.34,43.44,41.59,43.4,41.74Z"/><path class="cls-1" d="M63.6,44.07,50.91,42.41a48.31,48.31,0,0,0,0-20.49l12.68-1.68A32.37,32.37,0,0,1,63.6,44.07Z"/><path class="cls-1" d="M2.25,20.24l12.69,1.68a48,48,0,0,0,0,20.49L2.25,44.07A32.67,32.67,0,0,1,2.25,20.24Z"/><path class="cls-1" d="M13.34,15.89a7.95,7.95,0,1,1,7.93-8A7.91,7.91,0,0,1,13.34,15.89Z"/><path class="cls-1" d="M24.89,49.16H41a65.51,65.51,0,0,1-8,13.63A65,65,0,0,1,24.89,49.16Z"/><path class="cls-1" d="M32.92,1.53a65,65,0,0,1,8,13.55c-5.36.25-10.61.2-16,0A64.11,64.11,0,0,1,32.92,1.53Z"/><path class="cls-1" d="M24.52,63.87c-6.07-1.25-14-6.13-18.41-12.75.3-.06.57-.14.84-.17,3-.37,6.05-.71,9.06-1.12a1.18,1.18,0,0,1,1.51.92A64,64,0,0,0,24,63.09Z"/><path class="cls-1" d="M59.8,51.16A33.55,33.55,0,0,1,41.25,64c.24-.38.37-.59.5-.78a67.1,67.1,0,0,0,6.74-12.83c.15-.38.28-.66.79-.59,3.36.42,6.72.81,10.09,1.22A3.83,3.83,0,0,1,59.8,51.16Z"/><path class="cls-1" d="M41.48.5A32.73,32.73,0,0,1,59.89,13.28L48.77,14.6A75.56,75.56,0,0,0,41.48.5Z"/></g></g></svg>