<svg width="94" height="94" viewBox="0 0 94 94" fill="none" xmlns="http://www.w3.org/2000/svg">
<rect x="1" y="1" width="91.9298" height="91.9298" rx="11.4912" stroke="#2E59B1" stroke-width="1.5"/>
<path d="M51 24.5C51.4 22.5 48.8333 21 47.5 20.5C43.5 21.3 42.8333 24.1667 43 25.5H39V29H30.5V73.5H63.5V29H55V25.5C54.5 25.3333 53 24.9 51 24.5Z" fill="#E5EDFF"/>
<path d="M54.1665 31.4833V27.6833H64.9165V74.4833H29.0832V27.6833H39.9499V31.4833V31.5333H39.9999H54.1165H54.1665V31.4833ZM31.3165 72.2V72.25H31.3665H62.6332H62.6832V72.2V29.9666V29.9166H62.6332H56.4499H56.3999V29.9666V33.7666H37.7165V29.9666V29.9166H37.6665H31.3665H31.3165V29.9666V72.2Z" fill="#2E59B1" stroke="white" stroke-width="0.1"/>
<path d="M49.8001 24.0667H49.8641L49.8486 24.0045C49.73 23.5302 49.4933 23.0576 49.1401 22.5867L49.1412 22.5858L49.1321 22.5783C48.4255 21.9894 47.8312 21.75 47.1168 21.75C45.8101 21.75 44.622 22.6998 44.3842 24.0077L44.4334 24.0167V24.0667H49.8001ZM52.2501 26.3H42.1501V24.6C42.1501 21.8276 44.461 19.5167 47.2334 19.5167C48.5023 19.5167 49.6576 19.9773 50.8167 20.904L50.9304 21.0177C51.8553 22.0587 52.3168 23.2134 52.3168 24.6V26.3H52.2501Z" fill="#2E59B1" stroke="white" stroke-width="0.1"/>
<path d="M39.9498 31.4834V31.5334H39.9998H54.1165H54.1665V31.4834V26.3501V26.3001H54.1165H39.9998H39.9498V26.3501V31.4834ZM56.3998 33.7667H37.7165V24.0667H56.3998V33.7667Z" fill="#2E59B1" stroke="white" stroke-width="0.1"/>
<path d="M46.9333 38.1833H58.85V40.4166H46.9333V38.1833Z" fill="#2E59B1" stroke="white" stroke-width="0.1"/>
<path d="M46.9333 42.5H58.85V44.7333H46.9333V42.5Z" fill="#2E59B1" stroke="white" stroke-width="0.1"/>
<path d="M44.4803 38.2488L38.8331 43.896L35.8693 40.9321L37.4329 39.2568L38.7964 40.7339L38.8322 40.7727L38.869 40.7349L42.9157 36.5725L44.4803 38.2488Z" fill="#2E59B1" stroke="white" stroke-width="0.1"/>
<path d="M46.9333 49.9666H58.85V52.2H46.9333V49.9666Z" fill="#2E59B1" stroke="white" stroke-width="0.1"/>
<path d="M46.9333 54.1667H58.85V56.4H46.9333V54.1667Z" fill="#2E59B1" stroke="white" stroke-width="0.1"/>
<path d="M35.8699 52.484L37.4331 50.9207L38.7978 52.2853L38.8326 52.3202L38.868 52.2859L42.916 48.3535L44.4791 49.9167L38.8338 55.5619L35.8699 52.484Z" fill="#2E59B1" stroke="white" stroke-width="0.1"/>
<path d="M46.9333 61.5167H58.85V63.75H46.9333V61.5167Z" fill="#2E59B1" stroke="white" stroke-width="0.1"/>
<path d="M46.9333 65.8333H58.85V68.0667H46.9333V65.8333Z" fill="#2E59B1" stroke="white" stroke-width="0.1"/>
<path d="M38.8334 67.3449L35.7544 64.1518L37.4305 62.5875L38.7964 64.0672L38.8317 64.1054L38.8685 64.0686L42.9164 60.0207L44.4794 61.5836L38.8334 67.3449Z" fill="#2E59B1" stroke="white" stroke-width="0.1"/>
</svg>
