<svg xmlns="http://www.w3.org/2000/svg" viewBox="0 0 88.06 84"><defs><style>.cls-1{fill:#b1b1b1;}</style></defs><title>Asset 49</title><g id="Layer_2" data-name="Layer 2"><g id="Layer_1-2" data-name="Layer 1"><path class="cls-1" d="M55,84V58.85c0-2.74-1-3.71-3.72-3.71H36.61c-2.51,0-3.5,1-3.51,3.47V83.89c-.43,0-.74.1-1,.1-5.54,0-11.07,0-16.6,0a5.07,5.07,0,0,1-5.29-5.39q0-14.4,0-28.8c0-3.39-1.7-5.32-5-5.62C2.82,44,1.09,43,.32,40.74s0-4.25,1.85-5.85Q21.27,18.2,40.35,1.47c2.27-2,4.93-2,7.29.09Q66.83,18.27,86,35a5.09,5.09,0,0,1-3.35,9.16c-2.12,0-3.93.64-4.93,2.58a6.87,6.87,0,0,0-.69,3c0,9.51,0,19,0,28.53C77,81.92,75,84,71.36,84H55Z"/></g></g></svg>