<svg xmlns="http://www.w3.org/2000/svg" viewBox="0 0 47.49 64"><defs><style>.cls-1{fill:#396073;}</style></defs><title>Asset 78</title><g id="Layer_2" data-name="Layer 2"><g id="Layer_1-2" data-name="Layer 1"><path class="cls-1" d="M6.33,26.56v-.71c0-2.87,0-5.74,0-8.61A17.43,17.43,0,0,1,41,14.74a19.18,19.18,0,0,1,.2,2.73c0,2.78,0,5.56,0,8.34v.71c.84,0,1.62,0,2.4,0a3.77,3.77,0,0,1,3.82,2.92,4,4,0,0,1,.08.92V60.11A3.75,3.75,0,0,1,43.79,64H4.07A3.66,3.66,0,0,1,.53,62.06,4.14,4.14,0,0,1,0,60.25q0-15,0-30a3.71,3.71,0,0,1,3.39-3.67C4.34,26.51,5.29,26.56,6.33,26.56ZM35,26.49c0-.16,0-.26,0-.37,0-3,0-6,0-9a7.86,7.86,0,0,0-.15-1.53,11.2,11.2,0,0,0-22.2.89c-.16,3.26-.06,6.54-.07,9.81a1,1,0,0,0,.05.25ZM27.65,52.93c-.42-1.85-.78-3.64-1.23-5.41a1.74,1.74,0,0,1,.55-2,4.59,4.59,0,0,0-.18-6.77,4.73,4.73,0,0,0-6.72.47,4.68,4.68,0,0,0,.7,6.76.64.64,0,0,1,.29.77c-.2.79-.35,1.6-.51,2.41l-.79,3.78Z"/></g></g></svg>