<svg width="27" height="27" viewBox="0 0 27 27" fill="none" xmlns="http://www.w3.org/2000/svg">
<path d="M14.6934 5.06254H21.0939V10.9688C21.0939 11.4346 21.4719 11.8126 21.9376 11.8126C22.4034 11.8126 22.7814 11.4346 22.7814 10.9688V4.21879C22.7814 3.75302 22.4034 3.37503 21.9376 3.37503H14.6934L14.9407 3.12774C15.2701 2.79834 15.2701 2.26422 14.9407 1.93463C14.6113 1.60523 14.0766 1.60523 13.7475 1.93463L12.06 3.62214C11.7306 3.95154 11.7306 4.48566 12.06 4.81525L13.7475 6.50276C13.912 6.66775 14.128 6.75005 14.344 6.75005C14.56 6.75005 14.7757 6.66775 14.9405 6.50276C15.2699 6.17336 15.2699 5.63924 14.9405 5.30965L14.6934 5.06254Z" fill="#2267DB"/>
<path d="M13.2526 20.4975C12.9235 20.1681 12.3885 20.1681 12.0595 20.4975C11.7301 20.8269 11.7301 21.361 12.0595 21.6906L12.3067 21.9377H5.90626V16.0314C5.90626 15.5656 5.52827 15.1876 5.0625 15.1876C4.59674 15.1876 4.21875 15.5656 4.21875 16.0314V22.7814C4.21875 23.2472 4.59674 23.6252 5.0625 23.6252H12.3067L12.0595 23.8725C11.7301 24.2019 11.7301 24.736 12.0595 25.0656C12.2241 25.2304 12.4401 25.3127 12.6561 25.3127C12.8721 25.3127 13.0882 25.2304 13.2526 25.0654L14.9401 23.3779C15.2695 23.0485 15.2695 22.5144 14.9401 22.1848L13.2526 20.4975Z" fill="#2267DB"/>
<path d="M24.5784 18.97C25.0366 18.3941 25.3125 17.6663 25.3125 16.8749C25.3125 15.014 23.7985 13.4999 21.9375 13.4999C20.0765 13.4999 18.5625 15.014 18.5625 16.8749C18.5625 17.6663 18.8384 18.3941 19.2967 18.97C17.8681 19.6467 16.875 21.0984 16.875 22.7812V26.1562C16.875 26.622 17.253 27 17.7188 27H26.1563C26.6221 27 27.0001 26.622 27.0001 26.1562V22.7812C27.0001 21.0984 26.0069 19.6467 24.5784 18.97ZM21.9375 15.1874C22.8681 15.1874 23.625 15.9444 23.625 16.8749C23.625 17.8055 22.8681 18.5625 21.9375 18.5625C21.0069 18.5625 20.25 17.8055 20.25 16.8749C20.25 15.9444 21.0069 15.1874 21.9375 15.1874ZM25.3125 25.3125H18.5625V22.7812C18.5625 21.3853 19.6978 20.25 21.0938 20.25H22.7813C24.1772 20.25 25.3125 21.3853 25.3125 22.7812V25.3125Z" fill="#2267DB"/>
<path d="M10.1251 12.6563V9.2813C10.1251 7.59852 9.13193 6.14678 7.70338 5.47008C8.16161 4.89416 8.43754 4.16641 8.43754 3.37502C8.43754 1.51403 6.92351 0 5.06253 0C3.20154 0 1.68751 1.51403 1.68751 3.37502C1.68751 4.16641 1.96343 4.89416 2.42167 5.47008C0.993123 6.14678 0 7.59852 0 9.2813V12.6563C0 13.1221 0.377992 13.5001 0.843755 13.5001H9.2813C9.74706 13.5001 10.1251 13.1221 10.1251 12.6563ZM5.06253 1.68751C5.99312 1.68751 6.75004 2.44443 6.75004 3.37502C6.75004 4.30561 5.99312 5.06253 5.06253 5.06253C4.13194 5.06253 3.37502 4.30561 3.37502 3.37502C3.37502 2.44443 4.13194 1.68751 5.06253 1.68751ZM8.43754 11.8126H1.68751V9.2813C1.68751 7.88534 2.82282 6.75004 4.21877 6.75004H5.90628C7.30224 6.75004 8.43754 7.88534 8.43754 9.2813V11.8126Z" fill="#2267DB"/>
</svg>
