<svg xmlns="http://www.w3.org/2000/svg" viewBox="0 0 71.34 52.31"><defs><style>.cls-1{fill:#396073;}</style></defs><title>Asset 76</title><g id="Layer_2" data-name="Layer 2"><g id="Layer_1-2" data-name="Layer 1"><path class="cls-1" d="M28.25,27.67,31,30a7.39,7.39,0,0,0,9.43,0c.92-.79,1.83-1.6,2.69-2.35L67.14,51.68c-.59.17-1.22.4-1.87.52a9.2,9.2,0,0,1-1.66.11H7.72a7.56,7.56,0,0,1-3.46-.65Q16.24,39.68,28.25,27.67Z"/><path class="cls-1" d="M5,.25C5.84.17,6.72,0,7.6,0Q19.87,0,32.14,0,48,0,63.74,0a29.25,29.25,0,0,1,2.94.29l0,.23c-.2.19-.39.37-.6.55L37.89,25.87l-.54.45a2.37,2.37,0,0,1-3.4,0Q23.84,17.35,13.76,8.4C11.07,6,8.41,3.62,5.73,1.22L4.93.5Z"/><path class="cls-1" d="M46.88,24.28,70.36,3.66a6.36,6.36,0,0,1,1,3.33q0,19.16,0,38.32a6,6,0,0,1-.66,2.76Z"/><path class="cls-1" d="M1.08,3.44,24.44,24.33.62,48.14c-.18-.69-.4-1.38-.55-2.09A6.82,6.82,0,0,1,0,44.77Q0,26.1,0,7.41A7.23,7.23,0,0,1,1.08,3.44Z"/></g></g></svg>