<svg width="28" height="19" viewBox="0 0 28 19" fill="none" xmlns="http://www.w3.org/2000/svg">
<path d="M13.2042 7.60424L10.8169 7.39783C10.6105 7.36843 10.4043 7.25042 10.3159 7.04421L9.40224 4.83367C9.19582 4.36204 8.51797 4.36204 8.31176 4.83367L7.39812 7.04421C7.30972 7.25062 7.13291 7.39783 6.8971 7.39783L4.50977 7.60424C3.97935 7.63364 3.77293 8.28209 4.18555 8.63593L6.01287 10.198C6.18968 10.3455 6.24869 10.5517 6.18968 10.7875L5.60005 13.116C5.48224 13.617 6.04207 14.0296 6.48431 13.7644L8.54743 12.5265C8.72424 12.4087 8.96005 12.4087 9.16648 12.5265L11.2296 13.7644C11.6716 14.0296 12.2317 13.6466 12.1139 13.116L11.5538 10.7877C11.4948 10.5813 11.5832 10.3457 11.7306 10.1983L13.5579 8.63614C13.9118 8.31172 13.7054 7.6633 13.2043 7.6043L13.2042 7.60424Z" fill="#2267DB"/>
<path d="M25.2 0H2.79996C1.23785 0 0 1.26727 0 2.79996V15.7095C0 17.2716 1.26727 18.5094 2.79996 18.5094H25.2C26.7621 18.5094 28 17.2422 28 15.7095V2.82943C28 1.26732 26.7327 5.26029e-05 25.2 5.26029e-05V0ZM26.1727 15.739C26.1727 16.2991 25.7307 16.7411 25.1706 16.7411H2.80001C2.23996 16.7411 1.79795 16.299 1.79795 15.739V2.82948C1.79795 2.26943 2.23998 1.82743 2.80001 1.82743H25.2001C25.7601 1.82743 26.2022 2.26945 26.2022 2.82948V15.739H26.1727Z" fill="#2267DB"/>
<path d="M22.96 4.18529H16.3284C15.8274 4.18529 15.4148 4.59791 15.4148 5.09892C15.4148 5.59994 15.8274 6.01256 16.3284 6.01256H22.9895C23.4905 6.01256 23.9031 5.59994 23.9031 5.09892C23.8739 4.59789 23.4613 4.18529 22.9601 4.18529H22.96Z" fill="#2267DB"/>
<path d="M22.96 8.37054H16.3284C15.8274 8.37054 15.4148 8.78317 15.4148 9.28418C15.4148 9.78519 15.8274 10.1978 16.3284 10.1978H22.9895C23.4905 10.1978 23.9031 9.78519 23.9031 9.28418C23.9033 8.78315 23.4613 8.37054 22.9601 8.37054H22.96Z" fill="#2267DB"/>
<path d="M22.96 12.5558H16.3284C15.8274 12.5558 15.4148 12.9685 15.4148 13.4695C15.4148 13.9705 15.8274 14.3831 16.3284 14.3831H22.9895C23.4905 14.3831 23.9031 13.9705 23.9031 13.4695C23.8739 12.9684 23.4613 12.5558 22.9601 12.5558H22.96Z" fill="#2267DB"/>
</svg>
