<svg width="28" height="28" viewBox="0 0 28 28" fill="none" xmlns="http://www.w3.org/2000/svg">
<path d="M8.29352 12.0828L8.2925 12.1006C8.22352 13.3089 8.90035 14.4409 10.0173 14.9836L10.0287 14.9892C10.4225 15.1775 10.7453 15.4881 10.9489 15.8742L10.9535 15.8826C11.5163 16.9542 12.6803 17.6038 13.9212 17.5387L13.9401 17.5376C14.3901 17.5124 14.8368 17.6285 15.2176 17.8698C16.2684 18.5271 17.6022 18.5271 18.653 17.8698C19.0338 17.6285 19.4805 17.5124 19.9305 17.5376L19.9493 17.5387C21.1882 17.6043 22.3538 16.9542 22.9178 15.8808L22.9206 15.875C23.125 15.4878 23.4486 15.1768 23.8436 14.9881L23.8528 14.9836C24.9697 14.4406 25.6468 13.3089 25.5776 12.1003L25.5766 12.0835C25.5536 11.6579 25.6718 11.2367 25.9131 10.8851C26.6077 9.87206 26.6077 8.53621 25.9133 7.52287C25.6723 7.1716 25.5536 6.75059 25.5766 6.32499L25.5776 6.30717C25.6468 5.0986 24.9697 3.9669 23.8518 3.4237L23.8416 3.41861C23.4486 3.23076 23.1266 2.92174 22.9227 2.53662L22.9168 2.52516C22.3538 1.45353 21.1882 0.80419 19.9493 0.869099L19.9303 0.870117C19.4805 0.895317 19.0338 0.779245 18.6532 0.537937H18.6527C17.6019 -0.119295 16.2681 -0.119295 15.2174 0.537937C14.8366 0.77899 14.3899 0.895062 13.9398 0.869863L13.921 0.868844C12.6819 0.803172 11.5166 1.45328 10.9538 2.52465L10.9494 2.53254C10.7455 2.91945 10.4225 3.23025 10.0282 3.41886L10.0175 3.42395C8.90061 3.96664 8.22352 5.0986 8.29276 6.30717L8.29377 6.32397C8.31668 6.74957 8.19858 7.17084 7.95727 7.52211C7.26262 8.53545 7.26262 9.87155 7.95727 10.8846C8.19832 11.2359 8.31668 11.6572 8.29352 12.0828ZM8.81534 8.11418C9.18773 7.572 9.37024 6.9219 9.33461 6.26517L9.33359 6.24735C9.29693 5.44656 9.74646 4.70278 10.4722 4.36246L10.4811 4.35813C11.0765 4.07304 11.5639 3.60366 11.8714 3.01974L11.8765 3.01007C12.2504 2.29785 13.0336 1.86615 13.8655 1.91044L13.8838 1.9112C14.5494 1.94862 15.21 1.77706 15.773 1.42019C16.484 0.975498 17.3861 0.975498 18.097 1.42019C18.6601 1.77655 19.3206 1.94836 19.986 1.91146L20.0043 1.91044C20.8403 1.86666 21.6197 2.29785 21.9926 3.00803L21.9994 3.02101C22.3069 3.60417 22.7939 4.07279 23.3885 4.35762L23.3971 4.36195C24.1343 4.72035 24.5818 5.46031 24.5367 6.24761L24.5357 6.26619C24.5001 6.92291 24.6828 7.57276 25.0552 8.11494C25.5053 8.77141 25.505 9.63686 25.0547 10.2931C24.6826 10.8355 24.5001 11.4856 24.5357 12.1423L24.5367 12.1599C24.5818 12.9472 24.1343 13.6874 23.3969 14.0461L23.3893 14.0496C22.7934 14.3352 22.3054 14.8051 21.9977 15.3901L21.9938 15.3977C21.6197 16.1099 20.8377 16.5419 20.0046 16.4973L19.9865 16.4963C19.3209 16.4591 18.6601 16.631 18.0968 16.9876C17.3861 17.432 16.484 17.432 15.7733 16.9876C15.2612 16.663 14.667 16.491 14.0607 16.4915C14.0019 16.4915 13.9429 16.493 13.8838 16.4963L13.8655 16.4971C13.0446 16.5493 12.268 16.1196 11.8757 15.3964L11.8704 15.3865C11.5634 14.8036 11.0767 14.3352 10.4823 14.0504L10.4727 14.0456C9.73526 13.6872 9.28777 12.9469 9.33308 12.1599L9.3341 12.1413C9.36948 11.4846 9.18672 10.8345 8.81457 10.2926C8.36479 9.6361 8.36505 8.77065 8.81534 8.11469V8.11418Z" fill="#2267DB" stroke="#2267DB" stroke-width="0.3"/>
<path d="M13.5716 14.5931C13.8157 14.7456 14.1372 14.671 14.2896 14.4269L20.4651 4.53378C20.5659 4.37571 20.5743 4.17563 20.4868 4.00993C20.3992 3.84396 20.2292 3.73807 20.0418 3.73222C19.8545 3.72636 19.6783 3.82156 19.5806 3.98167L13.4054 13.8748C13.2529 14.1191 13.3272 14.4406 13.5716 14.5931Z" fill="#2267DB" stroke="#2267DB" stroke-width="0.3"/>
<path d="M14.1248 9.22961C15.3943 9.22961 16.4272 8.05183 16.4272 6.60424C16.4272 5.15665 15.3943 3.97913 14.1248 3.97913C12.8554 3.97913 11.8228 5.15665 11.8228 6.60424C11.8228 8.05183 12.8554 9.22961 14.1248 9.22961ZM14.1248 5.02174C14.8195 5.02174 15.3846 5.73166 15.3846 6.60424C15.3846 7.47682 14.8195 8.187 14.1248 8.187C13.4305 8.187 12.8654 7.47656 12.8654 6.60424C12.8654 5.73192 13.4305 5.02174 14.1248 5.02174Z" fill="#2267DB" stroke="#2267DB" stroke-width="0.3"/>
<path d="M17.4431 11.8041C17.4431 13.2517 18.4758 14.4292 19.7452 14.4292C21.0146 14.4292 22.0476 13.2514 22.0476 11.8041C22.0476 10.357 21.0149 9.17896 19.7455 9.17896C18.4758 9.17896 17.4431 10.3562 17.4431 11.8041ZM21.005 11.8041C21.005 12.6766 20.4399 13.3866 19.7452 13.3866C19.0508 13.3866 18.4857 12.6766 18.4857 11.8041C18.4857 10.9315 19.0508 10.2216 19.7452 10.2216C20.4399 10.2216 21.005 10.931 21.005 11.8041Z" fill="#2267DB" stroke="#2267DB" stroke-width="0.3"/>
<path d="M27.9323 20.4606C27.242 19.2355 25.7112 18.7689 24.455 19.4007L20.3714 21.3301C19.8075 20.2816 18.726 19.6142 17.5357 19.5806L13.7659 19.4768C13.169 19.4597 12.5833 19.3083 12.0526 19.0344L11.669 18.8356C9.70495 17.8118 7.36391 17.8143 5.40188 18.8422L5.42581 17.9732C5.4337 17.6853 5.2069 17.4455 4.91901 17.4376L0.785214 17.3238C0.497324 17.3159 0.257798 17.5427 0.249908 17.8306L0.000199818 26.9023C-0.00769108 27.1902 0.219108 27.43 0.506997 27.4379L4.64079 27.5517H4.6553C4.93759 27.5514 5.16846 27.3266 5.17635 27.0446L5.18806 26.6106L6.26198 26.0356C6.68351 25.8088 7.17656 25.7548 7.63703 25.8852L14.0498 27.685C14.061 27.6884 14.0722 27.6909 14.0836 27.6934C14.5471 27.7904 15.0196 27.839 15.4933 27.8388C16.4962 27.8393 17.4874 27.6232 18.3989 27.2047C18.4213 27.1945 18.4429 27.1828 18.4636 27.1696L27.7615 21.155C27.9934 21.0053 28.0683 20.7006 27.9323 20.4606ZM1.05681 26.4098L1.27776 18.3807L4.36945 18.4657L4.14825 26.4951L1.05681 26.4098ZM17.929 26.2731C16.7965 26.7842 15.5317 26.9252 14.3145 26.6763L7.91881 24.8815C7.19922 24.6779 6.42846 24.7624 5.76995 25.1164L5.22115 25.4102L5.36828 20.0716C7.10707 18.915 9.33739 18.7961 11.1894 19.7611L11.573 19.9599C12.2435 20.3061 12.9832 20.4972 13.7374 20.5189L17.5072 20.6227C18.5661 20.653 19.4654 21.407 19.6803 22.4445L14.065 22.29C13.7771 22.2821 13.5376 22.5089 13.5297 22.7968C13.5218 23.0847 13.7486 23.3245 14.0365 23.3323L20.2334 23.5029H20.2482C20.5302 23.5026 20.7611 23.2779 20.769 22.9958C20.7753 22.7693 20.7583 22.5425 20.7186 22.3195L24.9063 20.3404L24.9185 20.3346C25.5126 20.0337 26.2312 20.1343 26.7197 20.5866L17.929 26.2731Z" fill="#2267DB" stroke="#2267DB" stroke-width="0.3"/>
</svg>
