<svg xmlns="http://www.w3.org/2000/svg" viewBox="0 0 63.63 64.39"><defs><style>.cls-1{fill:#396073;}</style></defs><title>Asset 75</title><g id="Layer_2" data-name="Layer 2"><g id="Layer_1-2" data-name="Layer 1"><path class="cls-1" d="M17.69,33.31a21.44,21.44,0,0,0,27.84.33.74.74,0,0,1,1-.1A31.86,31.86,0,0,1,63.41,56a6.72,6.72,0,0,1-1.19,6,6.45,6.45,0,0,1-5.31,2.47c-5.57,0-11.15,0-16.72,0q-16.69,0-33.39,0A6.42,6.42,0,0,1,.7,60.85a7.12,7.12,0,0,1-.42-5.13A31.91,31.91,0,0,1,17.44,33.4Z"/><path class="cls-1" d="M14.64,17.14A17.18,17.18,0,1,1,31.77,34.33,17.18,17.18,0,0,1,14.64,17.14Z"/></g></g></svg>