<svg width="25" height="25" viewBox="0 0 25 25" fill="none" xmlns="http://www.w3.org/2000/svg">
<path fill-rule="evenodd" clip-rule="evenodd" d="M17 9.125C17 10.3185 16.5259 11.4631 15.682 12.307C14.8381 13.1509 13.6935 13.625 12.5 13.625C11.3065 13.625 10.1619 13.1509 9.31802 12.307C8.47411 11.4631 8 10.3185 8 9.125C8 7.93153 8.47411 6.78693 9.31802 5.94302C10.1619 5.09911 11.3065 4.625 12.5 4.625C13.6935 4.625 14.8381 5.09911 15.682 5.94302C16.5259 6.78693 17 7.93153 17 9.125ZM14.75 9.125C14.75 9.72174 14.5129 10.294 14.091 10.716C13.669 11.1379 13.0967 11.375 12.5 11.375C11.9033 11.375 11.331 11.1379 10.909 10.716C10.4871 10.294 10.25 9.72174 10.25 9.125C10.25 8.52826 10.4871 7.95597 10.909 7.53401C11.331 7.11205 11.9033 6.875 12.5 6.875C13.0967 6.875 13.669 7.11205 14.091 7.53401C14.5129 7.95597 14.75 8.52826 14.75 9.125Z" fill="#2267DB"/>
<path fill-rule="evenodd" clip-rule="evenodd" d="M12.5 0.125C5.66563 0.125 0.125 5.66563 0.125 12.5C0.125 19.3344 5.66563 24.875 12.5 24.875C19.3344 24.875 24.875 19.3344 24.875 12.5C24.875 5.66563 19.3344 0.125 12.5 0.125ZM2.375 12.5C2.375 14.8512 3.17712 17.0157 4.5215 18.7347C5.46563 17.4949 6.68364 16.4901 8.08036 15.7989C9.47709 15.1076 11.0147 14.7486 12.5731 14.75C14.1114 14.7485 15.6297 15.0982 17.0123 15.7724C18.3949 16.4465 19.6055 17.4274 20.5516 18.6403C21.5264 17.3618 22.1827 15.8696 22.4663 14.2872C22.7498 12.7047 22.6525 11.0775 22.1823 9.54011C21.7121 8.00274 20.8826 6.59943 19.7624 5.44629C18.6422 4.29316 17.2635 3.42334 15.7404 2.90882C14.2173 2.3943 12.5936 2.24987 11.0036 2.48747C9.41359 2.72507 7.90302 3.33788 6.59687 4.27519C5.29072 5.21249 4.22654 6.44735 3.49238 7.8776C2.75823 9.30784 2.3752 10.8923 2.375 12.5ZM12.5 22.625C10.1757 22.6285 7.92155 21.8289 6.119 20.3615C6.84455 19.3228 7.81026 18.4748 8.93397 17.8895C10.0577 17.3043 11.3061 16.9991 12.5731 17C13.8243 16.999 15.0577 17.2965 16.1708 17.8679C17.2839 18.4392 18.2447 19.2678 18.9732 20.285C17.1567 21.8 14.8654 22.6283 12.5 22.625Z" fill="#2267DB"/>
</svg>
