<svg width="24" height="26" viewBox="0 0 24 26" fill="none" xmlns="http://www.w3.org/2000/svg">
<path d="M1.83309 20.8157C2.49967 20.2325 3.08293 19.6909 3.70784 19.1076C3.87449 18.9827 4.04113 18.816 4.16611 18.691C4.45774 18.3577 4.87436 18.2328 5.29097 18.2328C6.83243 18.2328 8.33223 18.2328 9.87369 18.2328C9.91535 18.2328 9.95701 18.2328 9.99867 18.2328C9.99867 18.816 9.99867 19.3576 9.99867 19.9409C9.91535 19.9409 9.83203 19.9409 9.74871 19.9409C8.29057 19.9409 6.87409 19.9409 5.41595 19.9409C5.29096 19.9409 5.16599 19.9826 5.08266 20.0659C4.16612 20.8991 3.24957 21.7323 2.29136 22.5655C1.87475 22.9405 1.41648 22.9821 0.91655 22.8155C0.416616 22.6489 0.124986 22.2739 0.0416637 21.774C2.54217e-06 21.649 0 21.4823 0 21.3574C0 14.6916 0 8.06745 0 1.40166C0 0.610101 0.583257 0.026825 1.37482 0.026825C2.95794 0.026825 4.4994 0.026825 6.08253 0.026825C9.83203 0.026825 13.5399 0.026825 17.2894 0.026825C18.0393 0.026825 18.5392 0.401775 18.7059 1.06835C18.7475 1.15168 18.7475 1.27669 18.7475 1.36001C18.7475 4.56792 18.7475 7.77582 18.7475 10.9837C18.7475 11.067 18.7475 11.1087 18.7475 11.192C18.1643 11.192 17.6227 11.192 17.0394 11.192C17.0394 8.06745 17.0394 4.90122 17.0394 1.73497C11.9567 1.73497 6.87409 1.73497 1.79143 1.73497C1.83309 8.15079 1.83309 14.4416 1.83309 20.8157Z" fill="#2267DB"/>
<path d="M11.9568 19.1077C11.9568 15.8165 14.6231 13.1919 17.9143 13.1919C21.2056 13.1919 23.8302 15.8581 23.8302 19.1494C23.8302 22.4406 21.1639 25.0653 17.8727 25.0653C14.5814 25.0653 11.9568 22.399 11.9568 19.1077ZM17.8727 14.9C15.5396 14.9 13.6649 16.8164 13.6649 19.1494C13.6649 21.4407 15.5813 23.3155 17.8727 23.3155C20.2057 23.3155 22.0804 21.3991 22.0804 19.0661C22.0804 16.7747 20.164 14.9 17.8727 14.9Z" fill="#2267DB"/>
<path d="M9.37374 4.35962C10.9569 4.35962 12.4983 4.35962 14.0815 4.35962C14.4564 4.35962 14.4564 4.35963 14.4564 4.73458C14.4564 5.15119 14.4564 5.60945 14.4564 6.02606C14.4564 6.40102 14.4564 6.40103 14.0815 6.40103C11.7484 6.40103 9.41541 6.40103 7.04072 6.40103C6.2075 6.40103 5.37428 6.40103 4.54105 6.40103C4.24943 6.40103 4.20776 6.35934 4.20776 6.06772C4.20776 5.60944 4.20776 5.15119 4.20776 4.73458C4.20776 4.35963 4.20776 4.35962 4.58271 4.35962C6.2075 4.35962 7.79062 4.35962 9.37374 4.35962Z" fill="#2267DB"/>
<path d="M9.37358 9.02567C10.9567 9.02567 12.4982 9.02567 14.0813 9.02567C14.4146 9.02567 14.4562 9.06729 14.4562 9.40057C14.4562 9.85885 14.4562 10.2755 14.4562 10.7338C14.4562 11.1087 14.4146 11.1087 14.0813 11.1087C12.2065 11.1087 10.3318 11.1087 8.45704 11.1087C7.16554 11.1087 5.91571 11.1087 4.62422 11.1087C4.29093 11.1087 4.24927 11.0671 4.24927 10.7338C4.24927 10.2755 4.24927 9.85885 4.24927 9.40057C4.24927 9.06729 4.29093 9.02567 4.62422 9.02567C6.20734 9.02567 7.79046 9.02567 9.37358 9.02567Z" fill="#2267DB"/>
<path d="M12.165 13.6501C11.9151 13.9417 11.7068 14.1917 11.4985 14.4833C11.2485 14.8166 11.0402 15.1915 10.8735 15.5248C10.7902 15.6915 10.7069 15.7331 10.5403 15.7331C8.58218 15.7331 6.58245 15.7331 4.62438 15.7331C4.58271 15.7331 4.54105 15.7331 4.49939 15.7331C4.29108 15.7331 4.20776 15.6498 4.20776 15.4415C4.20776 14.9416 4.20776 14.4833 4.20776 13.9833C4.20776 13.6917 4.24943 13.6501 4.54105 13.6501C5.95753 13.6501 7.37401 13.6501 8.83215 13.6501C9.83202 13.6501 10.8735 13.6501 11.8734 13.6501C11.9984 13.6501 12.0817 13.6501 12.165 13.6501Z" fill="#2267DB"/>
<path d="M17.3308 19.2327C17.8724 18.6078 18.414 18.0246 18.9556 17.3996C19.1639 17.1497 19.4555 17.0247 19.7888 17.108C20.3721 17.1913 20.7054 17.8579 20.4137 18.3578C20.3721 18.4411 20.2888 18.5245 20.2471 18.6078C19.5389 19.3994 18.8306 20.2326 18.1224 21.0241C17.7058 21.4824 17.2058 21.4824 16.7892 21.0658C16.331 20.6075 15.8727 20.1493 15.4144 19.691C15.1644 19.441 15.0811 19.1494 15.2061 18.8161C15.3311 18.4828 15.5811 18.2745 15.956 18.2745C16.2476 18.2745 16.4559 18.3578 16.6642 18.5661C16.8725 18.7328 17.0809 18.9828 17.3308 19.2327Z" fill="#2267DB"/>
</svg>
