<svg width="31" height="31" viewBox="0 0 31 31" fill="none" xmlns="http://www.w3.org/2000/svg">
<path d="M2.81223 30.169H16.1019C17.1971 30.169 18.0881 29.278 18.0881 28.1828V26.9746C18.0881 25.8794 17.1971 24.9884 16.1019 24.9884H2.81223C1.717 24.9884 0.826026 25.8794 0.826026 26.9746V28.1828C0.826026 29.278 1.717 30.169 2.81223 30.169ZM2.38212 26.9746C2.38212 26.7382 2.57508 26.5445 2.81223 26.5445H16.1019C16.339 26.5445 16.532 26.7382 16.532 26.9746V28.1828C16.532 28.4191 16.339 28.6129 16.1019 28.6129H2.81223C2.57508 28.6129 2.38212 28.4191 2.38212 28.1828V26.9746Z" fill="#2267DB" stroke="#2267DB" stroke-width="0.347947"/>
<path d="M19.6973 9.17824C19.6812 9.24416 19.6458 9.34446 19.5804 9.48162C19.4897 9.67192 19.3498 9.91563 19.1535 10.2061C18.7611 10.7867 18.1482 11.5466 17.2655 12.4299C17.2655 12.4299 17.2655 12.4299 17.2655 12.4299C17.2654 12.4299 17.2654 12.43 17.2654 12.43C16.3475 13.3473 15.5619 13.9742 14.9824 14.3717C14.6924 14.5705 14.4552 14.711 14.2799 14.8015C14.1921 14.8469 14.1216 14.8788 14.069 14.8991C14.0636 14.9011 14.0585 14.903 14.0537 14.9048L9.98764 10.8739C9.98997 10.8612 9.99331 10.8462 9.99791 10.829C10.0131 10.7721 10.0399 10.6975 10.0811 10.6053C10.1634 10.4211 10.298 10.178 10.4933 9.88331C10.8836 9.2945 11.51 8.50965 12.4276 7.59212L19.6973 9.17824ZM19.6973 9.17824L19.7591 9.24001L19.8821 9.11697L19.7082 9.11118C19.7077 9.12707 19.7044 9.14936 19.6973 9.17824ZM9.09878 9.17216L9.09868 9.17231L9.09602 9.17651C8.96219 9.38722 8.68198 9.82844 8.53073 10.3162C8.37959 10.8035 8.3416 11.3937 8.78183 11.8339L13.0224 16.0745C13.2837 16.3358 13.6009 16.4299 13.9187 16.4299C14.2845 16.4299 14.6556 16.3041 14.9638 16.162C15.274 16.019 15.5356 15.8521 15.6831 15.7574C16.4835 15.2484 17.4332 14.459 18.3571 13.535C19.2836 12.6098 20.0756 11.6588 20.587 10.8559L20.5871 10.8558L20.5894 10.8521C20.7238 10.6409 21.0052 10.1986 21.1572 9.70956C21.3089 9.22133 21.3473 8.63022 20.9064 8.18933L16.6658 3.94872C16.2255 3.50847 15.6351 3.54651 15.1471 3.69794C14.6561 3.85033 14.2119 4.13336 14.0012 4.26763L14.0004 4.26809C14.0004 4.26811 14.0004 4.26812 14.0004 4.26813C13.1987 4.77838 12.2478 5.57032 11.3226 6.49671C10.3985 7.42079 9.60898 8.3706 9.09878 9.17216ZM15.6222 5.12412C15.6273 5.12216 15.6321 5.12035 15.6366 5.11868L12.4276 7.59208C13.3449 6.67537 14.1302 6.04869 14.7095 5.6514C14.9993 5.45264 15.2363 5.31214 15.4115 5.22163C15.4992 5.17628 15.5696 5.14442 15.6222 5.12412Z" fill="#2267DB" stroke="#2267DB" stroke-width="0.347947"/>
<path d="M13.2755 18.619L13.2757 18.6188L14.1238 17.7707C14.8949 16.9996 14.8949 15.7453 14.1238 14.9743L9.88324 10.7337C9.11215 9.96257 7.85788 9.96257 7.08679 10.7337L6.23889 11.5816C6.23886 11.5816 6.23882 11.5816 6.23879 11.5817C5.86406 11.9551 5.65855 12.4525 5.65855 12.9806C5.65855 13.5086 5.864 14.006 6.23759 14.3783C6.23762 14.3784 6.23765 14.3784 6.23768 14.3784L10.4781 18.6188C10.8636 19.0044 11.3712 19.1977 11.8769 19.1977C12.3828 19.1977 12.8889 19.0043 13.2755 18.619ZM8.18515 11.8357C8.18524 11.8356 8.18534 11.8355 8.18544 11.8354C8.2696 11.7523 8.37754 11.7108 8.48441 11.7108C8.59128 11.7108 8.69922 11.7523 8.78338 11.8354C8.78348 11.8355 8.78358 11.8356 8.78368 11.8357L13.0236 16.0757C13.1877 16.2397 13.1877 16.5077 13.0236 16.6717L12.1758 17.5195C12.1758 17.5195 12.1758 17.5196 12.1758 17.5196C12.0115 17.683 11.7443 17.6837 11.5792 17.5196C11.5792 17.5196 11.5792 17.5195 11.5792 17.5195L7.33887 13.2792C7.25777 13.1981 7.21464 13.0937 7.21464 12.9806C7.21464 12.8675 7.25777 12.7631 7.33887 12.682L8.18515 11.8357Z" fill="#2267DB" stroke="#2267DB" stroke-width="0.347947"/>
<path d="M19.8075 9.2883C20.1931 9.67386 20.7007 9.86722 21.2064 9.86722C21.7119 9.86722 22.2183 9.67519 22.604 9.28951L23.4521 8.44139C24.2232 7.6703 24.2232 6.41603 23.4521 5.64495L19.2115 1.40434C18.4404 0.633255 17.1861 0.633255 16.4151 1.40434L15.5669 2.25246C14.7959 3.02354 14.7959 4.27661 15.5669 5.04769L19.8075 9.2883ZM17.5146 2.50638C17.5147 2.50629 17.5148 2.50619 17.5149 2.5061C17.5984 2.42359 17.7061 2.38273 17.8139 2.38273C17.922 2.38273 18.0293 2.42377 18.1113 2.50575L22.3519 6.74635C22.5159 6.91038 22.5159 7.17837 22.3519 7.3424L21.5041 8.18899C21.34 8.3522 21.0716 8.35223 20.9075 8.18907C20.9075 8.18904 20.9075 8.18902 20.9074 8.18899L16.6671 3.9487C16.5031 3.78468 16.5031 3.51789 16.6671 3.35387L17.5146 2.50638Z" fill="#2267DB" stroke="#2267DB" stroke-width="0.347947"/>
<path d="M28.4116 23.5797L28.4136 23.5777C28.5584 23.4329 28.756 23.2353 28.7837 22.9527C28.8248 22.5407 28.5167 21.9946 27.8945 21.3712M28.4116 23.5797L28.289 23.4563C28.2889 23.4563 28.2889 23.4564 28.2888 23.4565M28.4116 23.5797L28.2886 23.4567C28.2886 23.4567 28.2887 23.4566 28.2888 23.4565M28.4116 23.5797L28.4102 23.5811C28.0935 23.8954 27.5626 24.4222 26.2043 23.0614L16.5729 14.1006M28.2888 23.4565C28.4402 23.3051 28.5897 23.1486 28.6105 22.9358L28.6106 22.9355C28.6262 22.7787 28.5766 22.576 28.4362 22.3266C28.2968 22.0789 28.0756 21.799 27.7714 21.4942M28.2888 23.4565C28.1271 23.617 27.9617 23.7743 27.6986 23.7755C27.4281 23.7767 26.9985 23.6108 26.3274 22.9385L26.3273 22.9384C25.6122 22.2233 20.799 16.9468 17.6275 13.2077M27.7714 21.4942L27.8945 21.3712M27.7714 21.4942C27.7714 21.4942 27.7713 21.4941 27.7713 21.4941L27.8945 21.3712M27.7714 21.4942C27.0624 20.784 21.7943 15.9779 18.0406 12.7919M27.8945 21.3712C27.1805 20.656 21.9081 15.8464 18.1532 12.6593M18.1532 12.6593L18.0406 12.7919M18.1532 12.6593L18.0406 12.7919M18.1532 12.6593L17.9504 11.6961M18.0406 12.7919C17.7128 12.5138 17.6717 12.0235 17.9504 11.6961M17.9504 11.6961C18.2308 11.3647 18.7213 11.3296 19.0473 11.6059L19.0474 11.606C22.6499 14.6622 28.0423 19.5611 28.8741 20.3941C29.7892 21.3092 30.2487 22.2183 30.1613 23.0897M17.9504 11.6961L30.1613 23.0897M30.1613 23.0897C30.0838 23.8631 29.6081 24.3388 29.3945 24.5524L29.3912 24.5557L29.391 24.5559C28.8762 25.0694 28.3099 25.34 27.6963 25.34C26.9003 25.34 26.0742 24.8857 25.2271 24.0386C24.3884 23.2 19.4834 17.8013 16.4402 14.2131L16.5729 14.1006M30.1613 23.0897L16.5729 14.1006M16.5729 14.1006L16.4405 14.2134C16.1618 13.8864 16.2022 13.3946 16.5305 13.1174C16.8573 12.8391 17.349 12.878 17.6275 13.2077M17.6275 13.2077C17.6276 13.2078 17.6276 13.2078 17.6276 13.2079L17.4947 13.3201L17.6274 13.2076C17.6274 13.2076 17.6275 13.2077 17.6275 13.2077Z" fill="#2267DB" stroke="#2267DB" stroke-width="0.347947"/>
</svg>
